<?xml version="1.0" encoding="UTF-8"?>
<svg version="1.1" xmlns="http://www.w3.org/2000/svg" width="100" height="100">
<path d="M0 0 C5.84337138 1.25215101 8.73102506 4.21899104 12 9 C14.94938786 17.84816358 12.96671721 26.83254097 9 35 C5.09446582 42.21782266 0.45035992 48.82488365 -6 54 C-6.66 54 -7.32 54 -8 54 C-8 54.66 -8 55.32 -8 56 C-19.94760456 64.85804397 -33.94895646 71.16739396 -49 70 C-54.06898123 68.83942517 -58.34680299 66.75757407 -62 63 C-65.43282233 57.19971399 -65.82775029 51.64870393 -65 45 C-63.54746381 39.74222816 -61.49452506 34.84297433 -59 30 C-58.34 30 -57.68 30 -57 30 C-57.04640625 30.65226562 -57.0928125 31.30453125 -57.140625 31.9765625 C-57.32260139 36.38299086 -57.28748782 39.3675268 -55.4375 43.4375 C-51.57690006 47.49607942 -47.92143903 48.73032435 -42.4375 49.5 C-29.3863782 48.91713437 -17.36269683 41.09080944 -8.59765625 31.890625 C-2.9874239 25.25162143 1.31121976 18.8340752 1.1875 9.9375 C1.18105469 8.91527344 1.17460938 7.89304687 1.16796875 6.83984375 C1.02361581 4.39927201 0.69892207 2.33160404 0 0 Z " fill="#367FCB" transform="translate(74,16)"/>
<path d="M0 0 C3.24875254 2.22283069 3.89631231 3.61981182 4.9375 7.4375 C5.00845985 11.48221121 4.56599956 12.92080053 2 16 C-1.07919947 18.56599956 -2.51778879 19.00845985 -6.5625 18.9375 C-10.38018818 17.89631231 -11.77716931 17.24875254 -14 14 C-15.04821378 10.15654948 -15.39424009 7.96369801 -13.875 4.25 C-9.67423845 -0.79091386 -6.37280252 -1.73803705 0 0 Z " fill="#FF9F15" transform="translate(51,31)"/>
</svg>
