<svg xmlns="http://www.w3.org/2000/svg" xml:space="preserve" viewBox="0 0 201 217">
    <path fill="#020201" d="M202 60v158H1V1h201zm-86.135 75.108s-.116.057-.033.644c.405.402.81.804 1.168 1.247 0 0 .05-.036.175.473.28.198.56.397.976.993 0 0 .204.368.194.855.14.334.39.517.956.986.183.273.416.49.806 1.186.291.2.582.399 1.076 1.249 7.889 10.972 15.788 21.936 23.661 32.919 5.874 8.194 11.653 16.457 17.594 24.603 2.847 3.905 6.647 4.675 9.893 2.126 3.599-2.826 2.649-5.859.288-9.059-4.01-5.437-7.804-11.034-11.77-16.505a35058 35058 0 0 0-41.057-56.505C103.362 97.752 86.9 75.21 70.471 52.642c-8.08-11.098-16-22.315-24.3-33.245-1.188-1.565-4.242-2.69-6.2-2.407-1.774.255-4.342 2.574-4.547 4.231-.26 2.111 1.105 4.754 2.46 6.681 12.912 18.371 25.865 36.716 39.025 54.91 8.822 12.194 17.996 24.134 27.123 36.759.244.283.49.567.852 1.149 0 0 .247.203.316.716.28.184.558.367.978.972 0 0 .14.421-.004.958.284.183.569.367.847.62 0 0 .064-.028.226.538.6.494 1.2.989 1.963 1.935 0 0 .196.438.147 1.011.568.509 1.136 1.017 1.872 1.957.179.268.42.452.847 1.118.362.402.723.803 1.066 1.304 0 0 .1.009.184.586.574.507 1.148 1.013 1.672 1.56 0 0 .055-.03.082.5.238.24.475.481.785.613M191.058 7.856c-1.089-.65-2.178-1.302-3.52-2.374-.242-.236-.53-.384-1.332-.958-4.44-.56-8.92-2.215-13.901.496-1.168.928-2.336 1.856-4.12 3.094-5.285 4.644-5.641 10.652-5.585 17.231.248 28.884.064 57.77.196 86.655.01 2.076 1.291 4.146 2.187 6.707.323.13.647.261 1.274.931 1.961-.499 3.922-.998 6.36-1.664.175-.278.35-.556 1.266-1.142.314-1.739.898-3.478.901-5.217.058-29.624.034-59.247.052-88.87.004-6.536 2.085-8.006 8.303-5.818 0 0 .14-.052.36.572.566 1.164 1.133 2.328 1.843 4.23-.026.746-.052 1.492-.36 3.144-.014 10.79-.072 21.58-.033 32.369.057 16.259.18 32.518.258 49.514.014.736.027 1.473-.222 2.878.086.464.172.927.24 2.131.043.74.088 1.48-.206 2.978.131 1.08.263 2.161.352 3.908-.006.445-.013.89-.364 2.218.36 5.618.72 11.235 1.05 17.027 0 0 .175.027.37.676 6.263 3.729 10.27 1.826 10.439-5.321.191-8.08-.105-16.172-.054-25.045a28 28 0 0 1 .079-4.099c-.073-7.037-.145-14.074-.082-21.933-.045-1.384-.09-2.768.081-5.071-.068-18.039-.137-36.078-.073-54.74-.041-.42-.082-.841-.03-2.012-.638-2.03-1.277-4.061-1.847-6.212 0 0-.124-.062-.097-.736a217 217 0 0 1-3.299-4.947s-.175-.052-.486-.6M38.931 209.105c.972-2.37 1.944-4.738 3.167-7.907.318-2.619.907-5.237.912-7.856.06-31.332.035-62.664.024-93.996-.002-6.586-1.755-8.122-8.344-7.248-1.134.15-2.223.637-3.589 1.045v5.495c.001 31.832.095 63.665-.14 95.496-.024 3.175-2.054 6.335-3.115 9.533 0 0-.052-.015-.76.074-1.376-.194-2.751-.389-4.576-1.252-.707-2.657-2.019-5.312-2.028-7.97-.13-37.926-.08-75.851-.09-113.776 0-2.77.547-5.847-3.24-6.848 0 0 .005-.027-.214-.51-.329-.046-.657-.092-1.616-.307-.432.03-.865.061-1.975-.077-.799.319-1.598.638-2.358.996 0 0-.026-.048-.769.107-.654 2.306-1.86 4.61-1.864 6.916-.013 8.896.524 17.793.537 26.69.011 8.146-.603 16.293-.564 24.438.074 15.387.39 30.773.663 46.158.148 8.304.026 16.64.738 24.9.714 8.279 14.146 15.01 20.784 10.74 0 0 .44-.127 1.155.043 2.203-1.574 4.407-3.147 6.436-4.928 0 0 .141.23.826.044m80.167-27.605c4.11 5.977 8.215 11.958 12.336 17.928 2.795 4.05 7.686 5.527 10.723 2.99 3.88-3.242 2.235-6.498-.204-9.858-10.681-14.72-21.2-29.558-31.894-44.27-18.824-25.898-37.78-51.702-56.59-77.611-11.573-15.94-22.977-32.002-34.463-48.004-2.674-3.726-6.226-4.662-9.275-2.476-3.155 2.261-3.553 6.104-.967 9.69 12.198 16.905 24.342 33.85 36.622 50.695C69.784 114.051 94.26 147.46 119.098 181.5m58.816-1.862c2.7 3.728 5.282 7.549 8.137 11.154 2.43 3.07 5.656 3.396 8.81 1.231 3.163-2.171 3.245-4.881.947-8.001-3.527-4.79-6.712-9.832-10.223-14.634-13.521-18.49-27.166-36.888-40.662-55.396-8.78-12.042-17.384-24.215-26.065-36.33-14.063-19.629-28.057-39.307-42.307-58.799-1.238-1.694-4.148-2.925-6.298-2.95-1.641-.018-4.686 2.213-4.687 3.443 0 2.86.792 6.198 2.437 8.504 17.983 25.212 36.17 50.28 54.35 75.349 8.244 11.367 16.652 22.616 24.893 33.986 10.104 13.94 20.112 27.95 30.668 42.443"/><path fill="#eb656d" d="M105.131 120.923s-.247-.203-.338-.644c-.352-.72-.612-1-.872-1.279-9.016-12.054-18.19-23.994-27.012-36.189-13.16-18.193-26.113-36.538-39.025-54.909-1.355-1.927-2.72-4.57-2.46-6.68.205-1.658 2.773-3.977 4.546-4.232 1.959-.282 5.013.842 6.202 2.407 8.3 10.93 16.22 22.147 24.299 33.245 16.429 22.567 32.892 45.11 49.321 67.678a35058 35058 0 0 1 41.056 56.505c3.967 5.47 7.76 11.068 11.771 16.505 2.36 3.2 3.31 6.233-.288 9.059-3.246 2.549-7.046 1.779-9.893-2.126-5.94-8.146-11.72-16.409-17.594-24.603-7.873-10.983-15.772-21.947-23.849-33.491-.456-.785-.724-.998-.992-1.21-.286-.162-.52-.38-.838-1.098-.27-.744-.494-.939-.81-1.028 0 0-.204-.368-.348-.817-.415-.65-.686-.851-.957-1.053 0 0-.05.036-.055-.286-.419-.719-.833-1.115-1.246-1.512 0 0 .116-.057.062-.263-.29-.45-.524-.693-.758-.937 0 0-.055.03-.055-.294-.585-.82-1.17-1.317-1.755-1.813 0 0-.101-.009-.118-.346-.4-.735-.785-1.134-1.17-1.533-.306-.1-.547-.284-.83-1.063-.642-1.013-1.18-1.516-1.719-2.019 0 0-.196-.438-.326-.976-.751-1.013-1.373-1.488-1.995-1.963 0 0-.064.027-.095-.233-.16-.558-.374-.77-.672-.896 0 0-.14-.421-.276-.872-.31-.757-.568-.951-.91-1.034"/><path fill="#ea666d" d="M118.9 181.197C94.26 147.46 69.784 114.05 45.386 80.584 33.106 63.74 20.962 46.794 8.764 29.888c-2.586-3.585-2.188-7.428.967-9.689 3.05-2.186 6.6-1.25 9.275 2.476 11.486 16.002 22.89 32.064 34.463 48.004 18.81 25.909 37.766 51.713 56.59 77.611 10.694 14.712 21.213 29.55 31.894 44.27 2.439 3.36 4.085 6.616.204 9.858-3.037 2.537-7.928 1.06-10.723-2.99-4.121-5.97-8.225-11.951-12.534-18.231M177.66 179.38c-10.302-14.236-20.31-28.245-30.414-42.185-8.241-11.37-16.649-22.619-24.892-33.986-18.182-25.07-36.368-50.137-54.351-75.349-1.645-2.306-2.437-5.644-2.437-8.504 0-1.23 3.046-3.461 4.687-3.443 2.15.025 5.06 1.256 6.298 2.95 14.25 19.492 28.244 39.17 42.307 58.798 8.681 12.116 17.284 24.289 26.065 36.331 13.496 18.508 27.14 36.907 40.662 55.396 3.511 4.802 6.696 9.844 10.223 14.634 2.298 3.12 2.216 5.83-.947 8.001-3.154 2.165-6.38 1.838-8.81-1.231-2.855-3.605-5.437-7.426-8.39-11.411"/><path fill="#f1db99" d="M185.247 108.965c-.013-.736-.026-1.473.146-2.947.29-1.728.483-2.717.484-3.706.025-24.484.04-48.968.008-73.451-.002-1.632-.405-3.262-.621-4.893.026-.747.052-1.493.142-2.855-.666-1.823-1.396-3.03-2.127-4.238 0 0-.14.052-.244-.307-1.792-.98-3.48-1.601-5.127-2.649-.056-3.117 1.032-4.574 3.866-5.17 1.774-.374 3.321-1.823 5.222-2.532 1.626.901 3 1.544 4.373 2.187 0 0 .175.052.12.479 1.073 2.016 2.2 3.605 3.327 5.194 0 0 .124.062.092.516.574 2.472 1.18 4.49 1.785 6.508.042.42.083.841-.157 1.927-.361 18.162-.448 35.66-.494 53.156-.001.612.412 1.225.631 1.838.046 1.384.091 2.768-.145 4.916-.138 7.873.005 14.981.148 22.09.045 1.059.09 2.119-.144 3.925-.38 7.676-.426 14.608-.596 21.536-.189 7.7-2.366 9.326-9.704 7.434 0 0-.175-.027-.155-.562-.229-6.149-.477-11.762-.725-17.375.006-.445.013-.89.2-1.923.056-1.752-.07-2.915-.195-4.079-.044-.74-.089-1.48.018-2.773.058-1.118-.035-1.682-.128-2.246"/><path fill="#d1ca9f" d="M17.176 73.863c3.763 1.033 3.216 4.11 3.217 6.88.008 37.925-.041 75.85.09 113.775.008 2.66 1.32 5.314 2.259 8.535.232.564.24 1.023-.09.908-1.434-2.734-2.54-5.353-3.633-8.44.012-38.004.042-75.541-.066-113.078-.005-1.871-1.21-3.738-1.855-5.98.026-1.114.052-1.857.078-2.6"/><path fill="#d1ca9f" d="M30.06 214.003c-6.184 4.213-19.616-2.518-20.33-10.797-.712-8.26-.59-16.596-.738-24.9-.273-15.385-.59-30.77-.663-46.158-.04-8.145.575-16.292.564-24.439-.013-8.896-.55-17.793-.537-26.689.003-2.306 1.21-4.61 2.175-6.614.02 2.068-.268 3.835-.565 6.07.016 37.152.04 73.837.048 110.95 0 2.145.014 3.86.023 5.906.01.77.026 1.208.151 2 2.856 10.814 8.458 14.872 19.872 14.67"/><path fill="#d1cb9c" d="M27.808 203.636c1.099-3.167 3.129-6.327 3.152-9.502.236-31.83.142-63.664.141-95.496v-5.495c1.366-.408 2.455-.895 3.589-1.045 6.59-.874 8.342.662 8.344 7.248.01 31.332.035 62.664-.024 93.996-.005 2.62-.594 5.237-1.228 8.256-.316.4-.696.4-.721.067-.026-.78-.027-1.225.134-2.055.397-1.849.836-3.313.837-4.778.034-31.903-.007-63.806.05-95.709.005-3.444-.995-5.226-4.803-5.255-3.828-.03-5.709 1.24-5.129 5.697-.049 31.552-.074 62.649-.037 93.745.002 1.602.534 3.204.66 5.093-.741 1.702-1.322 3.116-2.196 4.674-1.119.282-1.944.42-2.77.559"/><path fill="#f6e09c" d="M27.827 203.652a62 62 0 0 1 3.104-.501c3.57.344 3.525 6.36 7.907 4.113-.265.867-.428 1.447-.592 2.027 0 0-.141-.23-.407-.146-2.472 1.613-4.678 3.144-6.884 4.674 0 0-.44.127-.668.155-11.641.23-17.243-3.828-19.74-14.656 2.987-1.355 5.724-2.343 8.461-3.33 1.105 2.62 2.21 5.239 3.93 8.168 2.03.038 3.443-.233 4.856-.504 0 0 .052.015.033 0"/><path fill="#c5bd8f" d="M177.865 14.346c1.69.62 3.378 1.242 5.15 2.15-6.094-1.757-8.175-.287-8.18 6.249-.017 29.623.007 59.246-.05 88.87-.004 1.74-.588 3.478-1.361 5.29-.46.072-.645-.083-.543-.53.159-31.149.164-61.852.358-92.555.018-2.849 1.229-5.69 2.152-8.672 1.002-.358 1.738-.58 2.474-.802"/><path fill="#f1db99" d="M164.778 118.218c-.69-2.072-1.973-4.142-1.982-6.218-.132-28.885.052-57.771-.196-86.655-.056-6.579.3-12.587 5.982-17.297.398-.067.576.111.516.467-6.42 9.655-5.061 20.249-5.08 30.59-.04 22.634-.063 45.268.04 67.901.016 3.62.714 7.235 1.002 10.942z"/><path fill="#c5bd8f" d="M185.123 24.42c.357 1.179.76 2.81.762 4.44.033 24.484.017 48.968-.008 73.452 0 .99-.194 1.978-.475 3.337-.272-15.89-.396-32.148-.453-48.407-.039-10.79.019-21.58.174-32.821"/><path fill="#fce091" d="M177.908 13.92c-.779.648-1.515.87-2.56.903-.327-.406-.345-.622-.504-1.102-.71-1.082-1.278-1.9-1.708-2.975.718-.76 1.298-1.262 2.161-1.933.7-1.147 1.117-2.124 1.884-3.312 3.4-.294 6.447-.379 9.495-.463.333.06.62.208.726.626-.31.22-.485.257-.658.295-1.649.967-3.196 2.416-4.97 2.79-2.834.596-3.922 2.053-3.866 5.17"/><path fill="#c5bd8f" d="M196.782 77.562c-.328-.153-.741-.766-.74-1.378.046-17.497.133-34.994.428-52.844.283 17.685.352 35.724.312 54.222M186.329 138.247c7.241 1.568 9.418-.058 9.607-7.758.17-6.928.215-13.86.528-21.143.297 7.733.593 15.825.402 23.905-.17 7.147-4.176 9.05-10.537 4.996"/><path fill="#f6e09c" d="m9.974 80.007.928-5.679c.061-.379.087-.33.396-.323 1.114-.273 1.92-.554 2.727-.836.432-.03.865-.06 1.769.174.73.483 1.027.57 1.363.525 0 0-.004.027.007.011-.014.727-.04 1.47-.262 2.903-2.44 1.536-4.684 2.38-6.928 3.225"/><path fill="#c5bd8f" d="M196.783 104.567a451 451 0 0 1-.323-21.218c.286 6.684.358 13.721.323 21.218M186.441 4.781c-2.813.341-5.86.426-9.557.764-1.051.285-1.453.316-2.178.336-.754-.022-1.184-.032-1.64-.244-.026-.202-.094-.603-.094-.603 4.313-2.725 8.795-1.07 13.47-.253M185.18 120.427c.42 5.172.668 10.785.911 16.847-.365-5.17-.724-10.787-.911-16.847"/><path fill="#d1ca9f" d="M31.312 213.904c1.849-1.615 4.055-3.146 6.614-4.656-1.85 1.594-4.054 3.167-6.614 4.656"/><path fill="#c5bd8f" d="M172.14 118.141c-1.96.5-3.922.998-5.977 1.005-.094-.492.07-.923.464-.95 1.995-.158 3.595-.29 5.272-.329.077.094.242.274.242.274"/><path fill="#d1ca9f" d="M38.589 209.198c-.18-.487-.016-1.067.292-2.253.169-1.034.194-1.463.442-2.099.736-1.086 1.25-1.967 1.763-2.848h.57a45 45 0 0 1-3.067 7.2"/><path fill="#c5bd8f" d="M194.83 13.74c-1.14-1.252-2.268-2.841-3.314-4.77 1.162 1.252 2.244 2.843 3.314 4.77M196.74 20.726c-.652-1.643-1.258-3.661-1.866-6.073.636 1.637 1.275 3.667 1.866 6.073"/><path fill="#f1db99" d="M172.638 5.027c.334.007.402.408.32.961-1.321 1.093-2.56 1.632-3.8 2.171l-.267-.267a22.3 22.3 0 0 1 3.747-2.865"/><path fill="#c5bd8f" d="M186.996 6.217c-.079-.296.095-.333.532-.343 1.352.68 2.441 1.331 3.686 2.256-1.218-.369-2.592-1.012-4.218-1.913"/><path fill="#d1cb9c" d="M27.44 203.697c-1.059.226-2.472.497-4.171.573-.286-.194-.295-.653-.302-.883 1.368-.035 2.743.16 4.473.31"/><path fill="#c5bd8f" d="M183.39 17.187c.62.896 1.35 2.103 1.944 3.558-.702-.918-1.269-2.082-1.945-3.558M185.188 114.364c.294.784.42 1.947.385 3.365-.29-.825-.423-1.905-.385-3.365"/><path fill="#d1ca9f" d="M13.686 73.085c-.467.366-1.274.647-2.408.9.471-.346 1.27-.665 2.408-.9"/><path fill="#a35b69" d="M113.284 132.147c.544.207 1.129.704 1.739 1.504-.549-.203-1.123-.71-1.739-1.504M109.382 127.184c.563.216 1.101.719 1.66 1.516-.549-.213-1.117-.721-1.66-1.516M107.166 124.24c.54.193 1.163.668 1.832 1.455-.552-.182-1.151-.677-1.832-1.454M112.016 130.262c.324.116.708.515 1.119 1.2-.336-.114-.697-.515-1.12-1.2M115.79 135.459c.372.103.786.5 1.228 1.197-.377-.1-.781-.502-1.228-1.197"/><path fill="#c5bd8f" d="M185.116 109.3c.224.23.317.793.268 1.54-.227-.28-.313-.742-.268-1.54"/><path fill="#a35b69" d="M106.246 123.097c.37-.142.584.07.747.593-.25.043-.535-.14-.747-.593M115.067 134.23q.33-.03.708.727-.33.03-.708-.727M117.112 137.217c.21-.052.48.15.827.6-.205.052-.485-.147-.827-.6M118.35 139.077c.32-.155.546.04.712.566-.326.194-.577.01-.712-.566M120.055 141.225c.216-.054.484.16.839.619-.205.047-.496-.153-.839-.619M105.166 121.18c.308-.174.566.02.806.567-.214.056-.493-.127-.806-.567M103.976 119.285c.205-.005.465.275.758.845-.213.008-.458-.276-.758-.845"/><path fill="#f1db99" d="M166.233 118.223s-.164.43-.222.654c-.381.091-.705-.04-1.13-.415-.103-.244.085-.424.45-.427.544.06.723.124.902.188"/><path fill="#c5bd8f" d="M173.054 117.058c-.086.36-.262.638-.675 1-.238.083-.403-.097-.298-.326.333-.43.531-.657.698-.91 0 0 .186.155.275.236"/><path fill="#d1ca9f" d="M17.047 73.627c-.226.286-.523.199-.938-.2.172-.134.5-.088.938.2"/><path fill="#fde195" d="M9.966 80.475c2.252-1.312 4.496-2.157 6.936-3.32.841 1.55 2.046 3.417 2.051 5.288.108 37.537.078 75.074.066 113.078-2.748 1.454-5.485 2.442-8.581 3.444-.375-.425-.39-.864-.062-1.746 2.103-2.607 2.68-4.63-.347-6.22-.023-36.686-.047-73.371-.063-110.524"/><path fill="#f6e09c" d="M10.014 191.427c3.041 1.163 2.465 3.185.367 5.462-.353-1.602-.367-3.318-.367-5.462"/><path fill="#fde295" d="M39.1 205.052c-.025.43-.05.859-.118 1.607-4.526 2.853-4.481-3.164-7.758-3.652.227-1.488.808-2.902 1.571-5.084.19-31.847.21-62.926.17-94.005-.001-1.603-.508-3.206-.78-4.809-.615-4.002 1.266-5.27 5.094-5.241 3.808.029 4.808 1.81 4.802 5.255-.056 31.903-.015 63.806-.049 95.709-.001 1.465-.44 2.93-1.187 4.832-3.434 1.462-5.4 2.725-1.746 5.388"/><path fill="#f7e2a0" d="M32.15 99.565c.307 1.147.814 2.75.816 4.353.039 31.079.02 62.158-.011 93.718-.308-1.122-.84-2.724-.842-4.326-.037-31.096-.012-62.193.037-93.745"/><path fill="#f6e09c" d="M39.323 204.846c-3.877-2.457-1.912-3.72 1.36-4.798.35.392.352.838.378 1.617-.489 1.214-1.002 2.095-1.738 3.181"/><path fill="#fbdf94" d="M172.881 116.376c-.269.7-.467.926-.877 1.261-1.782.268-3.382.401-5.377.56-.573-.038-.752-.102-1.202-.252-.653-3.704-1.351-7.32-1.368-10.939-.102-22.633-.08-45.267-.039-67.9.019-10.342-1.34-20.936 5.08-30.59 1.3-.896 2.539-1.435 3.886-2.326.538-.34.968-.331 1.714.08.315 1.17.315 1.941.315 2.712a29 29 0 0 1-2.234 1.784 35 35 0 0 0-2.409 1.892l4.615 1.327c.018.216.036.432.097.974-.614 3.17-1.825 6.012-1.843 8.861-.194 30.703-.2 61.406-.358 92.556"/><path fill="#f1db99" d="M174.844 13.721c-1.397-.179-2.935-.62-4.474-1.063.638-.538 1.275-1.076 2.27-1.635.926.798 1.494 1.616 2.204 2.698M175.297 8.813c-.284-.602-.284-1.373-.276-2.532.41-.42.812-.451 1.511-.526-.118.934-.535 1.911-1.235 3.058"/></svg>
